<?xml version="1.0" encoding="UTF-8"?>
<svg id="Layer_1" data-name="Layer 1" xmlns="http://www.w3.org/2000/svg" viewBox="0 0 30.68 30.68">
  <defs>
    <style>
      .cls-1 {
        fill: #fff;
      }

      .cls-2 {
        fill: #000;
      }
    </style>
  </defs>
  <circle class="cls-2" cx="15.34" cy="15.34" r="15.34"/>
  <g id="K1I34R.tif">
    <g>
      <path class="cls-1" d="M9.28,23.18c.05-.31,.09-.62,.16-.93,.44-1.8,1.49-3.13,3.12-4.01,.04-.02,.07-.04,.11-.06,0,0,.02-.02,.02-.02-1.75-1.66-1.47-4.32,.08-5.7,1.52-1.35,3.8-1.31,5.26,.09,1.5,1.44,1.67,3.98-.02,5.6,2.01,1.11,3.18,2.74,3.38,4.98,.02,.26-.18,.49-.45,.49H9.73c-.25,0-.45-.2-.45-.45h0Zm1.21-.66h9.69s0-.08-.02-.11c-.47-1.69-1.54-2.84-3.18-3.46-.07-.03-.17-.02-.24,0-.93,.34-1.85,.34-2.78,0-.09-.03-.2-.03-.29,0-1.35,.5-2.32,1.41-2.9,2.73-.11,.26-.19,.54-.29,.82Zm7.62-7.16c0-1.52-1.23-2.76-2.76-2.77-1.51,0-2.75,1.23-2.76,2.73,0,1.54,1.21,2.78,2.73,2.79,1.54,0,2.78-1.22,2.79-2.76Z"/>
      <path class="cls-1" d="M22.43,13.74c2.07,1.12,3.22,2.83,3.41,5.15,.01,.18-.15,.33-.33,.29,0,0-.02,0-.01,0,.01,0-4.14,0-4.14,0-.25,.05-.35,.03-.46-.1-.3-.33-.61-.65-.93-.98h4.65c-.04-.15-.07-.28-.11-.4-.52-1.55-1.55-2.6-3.07-3.18-.08-.03-.19-.02-.27,0-.28,.07-.56,.15-.84,.23-.09-.38-.18-.74-.27-1.11,.86-.11,1.55-.51,2.03-1.24,.35-.53,.51-1.12,.44-1.75-.15-1.39-1.24-2.43-2.58-2.51-1.36-.08-2.71,.87-2.92,2.48-.36-.08-.71-.17-1.07-.25,.1-1.11,.97-2.72,2.85-3.21,1.6-.42,3.31,.26,4.22,1.66,.89,1.37,.89,3.45-.6,4.9Z"/>
      <path class="cls-1" d="M8.25,13.74c-2.07,1.12-3.22,2.83-3.41,5.15-.01,.18,.15,.33,.33,.29,0,0,.02,0,.01,0-.01,0,4.14,0,4.14,0,.25,.05,.35,.03,.46-.1,.3-.33,.61-.65,.93-.98H6.06c.04-.15,.07-.28,.11-.4,.52-1.55,1.55-2.6,3.07-3.18,.08-.03,.19-.02,.27,0,.28,.07,.56,.15,.84,.23,.09-.38,.18-.74,.27-1.11-.86-.11-1.55-.51-2.03-1.24-.35-.53-.51-1.12-.44-1.75,.15-1.39,1.24-2.43,2.58-2.51,1.36-.08,2.71,.87,2.92,2.48,.36-.08,.71-.17,1.07-.25-.1-1.11-.97-2.72-2.85-3.21-1.6-.42-3.31,.26-4.22,1.66-.89,1.37-.89,3.45,.6,4.9Z"/>
    </g>
  </g>
</svg>