<?xml version="1.0" encoding="UTF-8"?>
<svg id="Layer_1" data-name="Layer 1" xmlns="http://www.w3.org/2000/svg" viewBox="0 0 16 16">
  <defs>
    <style>
      .cls-1 {
        fill: #2eb454;
      }
    </style>
  </defs>
  <path class="cls-1" d="M15.46,5.13c-.46-1.2-1.2-2.26-2.15-3.1-1.4-1.26-3.27-2.03-5.31-2.03S4.09,.77,2.68,2.03c-.6,.53-1.12,1.16-1.55,1.86-.72,1.2-1.13,2.61-1.13,4.11s.42,2.89,1.13,4.09h0s0,0,0,0c1.4,2.34,3.94,3.91,6.87,3.91s5.48-1.57,6.87-3.91c.23-.38,.43-.79,.59-1.21,.35-.89,.54-1.86,.54-2.88s-.19-1.98-.54-2.87Zm-5.17,3.28l-3.5,2.5c-.09,.06-.19,.09-.29,.09-.28,0-.5-.22-.5-.5V5.5c0-.1,.03-.2,.09-.29,.16-.22,.47-.27,.7-.11l3.5,2.5s.08,.07,.11,.11c.16,.23,.11,.54-.11,.7Z"/>
  <path d="M10.29,8.41l-3.5,2.5c-.09,.06-.19,.09-.29,.09-.28,0-.5-.22-.5-.5V5.5c0-.1,.03-.2,.09-.29,.16-.22,.47-.27,.7-.11l3.5,2.5s.08,.07,.11,.11c.16,.23,.11,.54-.11,.7Z"/>
</svg>